{
  "accessors": [
    {
      "bufferView": 2,
      "componentType": 5126,
      "count": 65533,
      "max": [
        1.6498105525970459,
        3.8647480010986328,
        1.9332448244094849
      ],
      "min": [
        -1.7016103267669678,
        -0.015600204467773438,
        -1.8833192586898804
      ],
      "type": "VEC3"
    },
    {
      "bufferView": 2,
      "byteOffset": 786396,
      "componentType": 5126,
      "count": 65533,
      "max": [
        0.99997544288635254,
        0.99999970197677612,
        0.99999511241912842
      ],
      "min": [
        -0.99991792440414429,
        -0.99990057945251465,
        -0.99999111890792847
      ],
      "type": "VEC3"
    },
    {
      "bufferView": 3,
      "componentType": 5126,
      "count": 65533,
      "max": [
        0.9999772310256958,
        0.99995672702789307,
        0.99996334314346313,
        1
      ],
      "min": [
        -0.99996131658554077,
        -0.99997979402542114,
        -0.9999963641166687,
        -1
      ],
      "type": "VEC4"
    },
    {
      "bufferView": 3,
      "byteOffset": 1048528,
      "componentType": 5126,
      "count": 65533,
      "max": [
        1,
        1,
        1,
        1
      ],
      "min": [
        1,
        1,
        1,
        1
      ],
      "type": "VEC4"
    },
    {
      "bufferView": 1,
      "componentType": 5126,
      "count": 65533,
      "max": [
        0.99924391508102417,
        0.99624001979827881
      ],
      "min": [
        0.00048780423821881413,
        0.00048780476208776236
      ],
      "type": "VEC2"
    },
    {
      "bufferView": 0,
      "componentType": 5125,
      "count": 200175,
      "max": [
        65532
      ],
      "min": [
        0
      ],
      "type": "SCALAR"
    },
    {
      "bufferView": 2,
      "byteOffset": 1572792,
      "componentType": 5126,
      "count": 58407,
      "max": [
        1.7016103267669678,
        3.6324663162231445,
        1.766569972038269
      ],
      "min": [
        -1.5331370830535889,
        -0.015600204467773438,
        -1.9542124271392822
      ],
      "type": "VEC3"
    },
    {
      "bufferView": 2,
      "byteOffset": 2273676,
      "componentType": 5126,
      "count": 58407,
      "max": [
        0.99997895956039429,
        0.99994754791259766,
        0.99991482496261597
      ],
      "min": [
        -0.99999523162841797,
        -0.99999862909317017,
        -0.99997472763061523
      ],
      "type": "VEC3"
    },
    {
      "bufferView": 3,
      "byteOffset": 2097056,
      "componentType": 5126,
      "count": 58407,
      "max": [
        0.99992287158966064,
        0.99995929002761841,
        0.99999195337295532,
        -1
      ],
      "min": [
        -0.99992209672927856,
        -0.99996989965438843,
        -0.99998146295547485,
        -1
      ],
      "type": "VEC4"
    },
    {
      "bufferView": 3,
      "byteOffset": 3031568,
      "componentType": 5126,
      "count": 58407,
      "max": [
        1,
        1,
        1,
        1
      ],
      "min": [
        1,
        1,
        1,
        1
      ],
      "type": "VEC4"
    },
    {
      "bufferView": 1,
      "byteOffset": 524264,
      "componentType": 5126,
      "count": 58407,
      "max": [
        0.99918097257614136,
        0.99612927436828613
      ],
      "min": [
        0.00048780464567244053,
        0.00048780447104945779
      ],
      "type": "VEC2"
    },
    {
      "bufferView": 0,
      "byteOffset": 800700,
      "componentType": 5125,
      "count": 177411,
      "max": [
        58406
      ],
      "min": [
        0
      ],
      "type": "SCALAR"
    },
    {
      "bufferView": 2,
      "byteOffset": 2974560,
      "componentType": 5126,
      "count": 259,
      "max": [
        -0.4947625994682312,
        3.9156007766723633,
        1.9542124271392822
      ],
      "min": [
        -1.6640093326568604,
        2.7181634902954102,
        0.84424251317977905
      ],
      "type": "VEC3"
    },
    {
      "bufferView": 2,
      "byteOffset": 2977668,
      "componentType": 5126,
      "count": 259,
      "max": [
        0.92738586664199829,
        0.95950025320053101,
        0.98327153921127319
      ],
      "min": [
        -0.93008345365524292,
        -0.96250659227371216,
        -0.98330068588256836
      ],
      "type": "VEC3"
    },
    {
      "bufferView": 3,
      "byteOffset": 3966080,
      "componentType": 5126,
      "count": 259,
      "max": [
        0.98294764757156372,
        0.98417556285858154,
        0.97533094882965088,
        -1
      ],
      "min": [
        -0.98361587524414062,
        -0.99768340587615967,
        -0.92011791467666626,
        -1
      ],
      "type": "VEC4"
    },
    {
      "bufferView": 3,
      "byteOffset": 3970224,
      "componentType": 5126,
      "count": 259,
      "max": [
        1,
        1,
        1,
        1
      ],
      "min": [
        1,
        1,
        1,
        1
      ],
      "type": "VEC4"
    },
    {
      "bufferView": 1,
      "byteOffset": 991520,
      "componentType": 5126,
      "count": 259,
      "max": [
        0.99882405996322632,
        0.53105753660202026
      ],
      "min": [
        0.00048780487850308418,
        0.00048780487850308418
      ],
      "type": "VEC2"
    },
    {
      "bufferView": 0,
      "byteOffset": 1510344,
      "componentType": 5125,
      "count": 708,
      "max": [
        258
      ],
      "min": [
        0
      ],
      "type": "SCALAR"
    }
  ],
  "asset": {
    "extras": {
      "author": "muratgt (https://sketchfab.com/muratgt)",
      "license": "CC-BY-4.0 (http://creativecommons.org/licenses/by/4.0/)",
      "source": "https://sketchfab.com/3d-models/diamond-ring-76a90dfabf5f4f89bae41e6bd4174776",
      "title": "Diamond Ring"
    },
    "generator": "Sketchfab-4.67.0",
    "version": "2.0"
  },
  "bufferViews": [
    {
      "buffer": 0,
      "byteLength": 1513176,
      "byteOffset": 0,
      "name": "floatBufferViews",
      "target": 34963
    },
    {
      "buffer": 0,
      "byteLength": 993592,
      "byteOffset": 1513176,
      "byteStride": 8,
      "name": "floatBufferViews",
      "target": 34962
    },
    {
      "buffer": 0,
      "byteLength": 2980776,
      "byteOffset": 2506768,
      "byteStride": 12,
      "name": "floatBufferViews",
      "target": 34962
    },
    {
      "buffer": 0,
      "byteLength": 3974368,
      "byteOffset": 5487544,
      "byteStride": 16,
      "name": "floatBufferViews",
      "target": 34962
    }
  ],
  "buffers": [
    {
      "byteLength": 9461912,
      "uri": "scene.bin"
    }
  ],
  "images": [
    {
      "uri": "textures/diamond_metallicRoughness.png"
    },
    {
      "uri": "textures/diamond_normal.png"
    },
    {
      "uri": "textures/diamond_baseColor.png"
    },
    {
      "uri": "textures/diamond_emissive.png"
    },
    {
      "uri": "textures/gold_metallicRoughness.png"
    },
    {
      "uri": "textures/gold_normal.png"
    }
  ],
  "materials": [
    {
      "doubleSided": true,
      "emissiveFactor": [
        0,
        0,
        0
      ],
      "name": "gold",
      "normalTexture": {
        "index": 5,
        "scale": 1,
        "texCoord": 0
      },
      "pbrMetallicRoughness": {
        "baseColorFactor": [
          0.87410166889999996,
          0.96221044150000001,
          1,
          1
        ],
        "metallicFactor": 1,
        "metallicRoughnessTexture": {
          "index": 4,
          "texCoord": 0
        },
        "roughnessFactor": 1
      }
    },
    {
      "alphaMode": "BLEND",
      "doubleSided": true,
      "emissiveFactor": [
        1,
        1,
        1
      ],
      "emissiveTexture": {
        "index": 3,
        "texCoord": 0
      },
      "name": "diamond",
      "normalTexture": {
        "index": 1,
        "scale": 0.245617378,
        "texCoord": 0
      },
      "pbrMetallicRoughness": {
        "baseColorFactor": [
          0.35852693140000003,
          0.66755753340000001,
          0.97006797909999998,
          1
        ],
        "baseColorTexture": {
          "index": 2,
          "texCoord": 0
        },
        "metallicFactor": 1,
        "metallicRoughnessTexture": {
          "index": 0,
          "texCoord": 0
        },
        "roughnessFactor": 0.39195884149999999
      }
    }
  ],
  "meshes": [
    {
      "name": "clean23_gold_0",
      "primitives": [
        {
          "attributes": {
            "COLOR_0": 3,
            "NORMAL": 1,
            "POSITION": 0,
            "TANGENT": 2,
            "TEXCOORD_0": 4
          },
          "indices": 5,
          "material": 0,
          "mode": 4
        }
      ]
    },
    {
      "name": "clean23_gold_0",
      "primitives": [
        {
          "attributes": {
            "COLOR_0": 9,
            "NORMAL": 7,
            "POSITION": 6,
            "TANGENT": 8,
            "TEXCOORD_0": 10
          },
          "indices": 11,
          "material": 0,
          "mode": 4
        }
      ]
    },
    {
      "name": "clean23_diamond_0",
      "primitives": [
        {
          "attributes": {
            "COLOR_0": 15,
            "NORMAL": 13,
            "POSITION": 12,
            "TANGENT": 14,
            "TEXCOORD_0": 16
          },
          "indices": 17,
          "material": 1,
          "mode": 4
        }
      ]
    }
  ],
  "nodes": [
    {
      "children": [
        1
      ],
      "name": "RootNode (gltf orientation matrix)",
      "rotation": [
        -0.70710678118654746,
        -0,
        -0,
        0.70710678118654757
      ]
    },
    {
      "children": [
        2
      ],
      "name": "RootNode (model correction matrix)"
    },
    {
      "children": [
        3
      ],
      "matrix": [
        1,
        0,
        0,
        0,
        0,
        0,
        1,
        0,
        0,
        -1,
        0,
        0,
        0,
        0,
        0,
        1
      ],
      "name": "2ReducedLess.fbx"
    },
    {
      "children": [
        4
      ],
      "name": "RootNode"
    },
    {
      "children": [
        5,
        6,
        7
      ],
      "name": "clean23"
    },
    {
      "mesh": 0,
      "name": "clean23_gold_0"
    },
    {
      "mesh": 1,
      "name": "clean23_gold_0"
    },
    {
      "mesh": 2,
      "name": "clean23_diamond_0"
    }
  ],
  "samplers": [
    {
      "magFilter": 9729,
      "minFilter": 9987,
      "wrapS": 10497,
      "wrapT": 10497
    }
  ],
  "scene": 0,
  "scenes": [
    {
      "name": "OSG_Scene",
      "nodes": [
        0
      ]
    }
  ],
  "textures": [
    {
      "sampler": 0,
      "source": 0
    },
    {
      "sampler": 0,
      "source": 1
    },
    {
      "sampler": 0,
      "source": 2
    },
    {
      "sampler": 0,
      "source": 3
    },
    {
      "sampler": 0,
      "source": 4
    },
    {
      "sampler": 0,
      "source": 5
    }
  ]
}

